REM DIRINDEX 1\6,1\2\7,1\2\8,1\2\9,1\3\10,1\3\11,1\4\12,1\4\13,1\4\14,1\5\15,1\5\16,1\5\17
REM DIRNAME folder01,folder02,folder03,folder04,folder05,folder06,folder07,folder08,folder09,folder10,folder11,folder12,folder13,folder14,folder15,folder16,folder17
TITLE ""
FILE "3Q_j_0917-0932.mp3" MP3
  TRACK 01 AUDIO
    TITLE "12:cjc041_0050"
    INDEX 01 00:00:00
  TRACK 02 AUDIO
    TITLE "0:"
    INDEX 01 00:01:40
  TRACK 03 AUDIO
    TITLE "13:cjc041_0051"
    INDEX 01 00:02:10
  TRACK 04 AUDIO
    TITLE "0:"
    INDEX 01 00:03:53
  TRACK 05 AUDIO
    TITLE "14:cjc041_0052"
    INDEX 01 00:04:33
  TRACK 06 AUDIO
    TITLE "0:"
    INDEX 01 00:08:44
  TRACK 07 AUDIO
    TITLE "12:cjc041_0053"
    INDEX 01 00:09:26
  TRACK 08 AUDIO
    TITLE "0:"
    INDEX 01 00:10:61
  TRACK 09 AUDIO
    TITLE "13:cjc041_0054"
    INDEX 01 00:11:39
  TRACK 10 AUDIO
    TITLE "0:"
    INDEX 01 00:13:26
  TRACK 11 AUDIO
    TITLE "14:cjc041_0055"
    INDEX 01 00:14:06
  TRACK 12 AUDIO
    TITLE "0:"
    INDEX 01 00:18:44
  TRACK 13 AUDIO
    TITLE "12:cjc041_0056"
    INDEX 01 00:19:28
  TRACK 14 AUDIO
    TITLE "0:"
    INDEX 01 00:21:31
  TRACK 15 AUDIO
    TITLE "13:cjc041_0057"
    INDEX 01 00:22:11
  TRACK 16 AUDIO
    TITLE "0:"
    INDEX 01 00:25:07
  TRACK 17 AUDIO
    TITLE "14:cjc041_0058"
    INDEX 01 00:25:64
  TRACK 18 AUDIO
    TITLE "0:"
    INDEX 01 00:29:05
  TRACK 19 AUDIO
    TITLE "12:cjc041_0059"
    INDEX 01 00:29:66
  TRACK 20 AUDIO
    TITLE "0:"
    INDEX 01 00:31:14
  TRACK 21 AUDIO
    TITLE "13:cjc041_0060"
    INDEX 01 00:31:67
  TRACK 22 AUDIO
    TITLE "0:"
    INDEX 01 00:33:09
  TRACK 23 AUDIO
    TITLE "14:cjc041_0061"
    INDEX 01 00:33:68
  TRACK 24 AUDIO
    TITLE "0:"
    INDEX 01 00:38:63
  TRACK 25 AUDIO
    TITLE "12:cjc041_0062"
    INDEX 01 00:39:45
  TRACK 26 AUDIO
    TITLE "0:"
    INDEX 01 00:40:72
  TRACK 27 AUDIO
    TITLE "13:cjc041_0063"
    INDEX 01 00:41:49
  TRACK 28 AUDIO
    TITLE "0:"
    INDEX 01 00:43:56
  TRACK 29 AUDIO
    TITLE "14:cjc041_0064"
    INDEX 01 00:44:38
  TRACK 30 AUDIO
    TITLE "0:"
    INDEX 01 00:47:46
  TRACK 31 AUDIO
    TITLE "12:cjc041_0065"
    INDEX 01 00:48:26
  TRACK 32 AUDIO
    TITLE "0:"
    INDEX 01 00:49:51
  TRACK 33 AUDIO
    TITLE "13:cjc041_0066"
    INDEX 01 00:50:33
  TRACK 34 AUDIO
    TITLE "0:"
    INDEX 01 00:51:54
  TRACK 35 AUDIO
    TITLE "14:cjc041_0067"
    INDEX 01 00:52:36
  TRACK 36 AUDIO
    TITLE "0:"
    INDEX 01 00:55:67
  TRACK 37 AUDIO
    TITLE "12:cjc041_0068"
    INDEX 01 00:56:45
  TRACK 38 AUDIO
    TITLE "0:"
    INDEX 01 00:58:26
  TRACK 39 AUDIO
    TITLE "13:cjc041_0069"
    INDEX 01 00:59:04
  TRACK 40 AUDIO
    TITLE "0:"
    INDEX 01 01:03:00
  TRACK 41 AUDIO
    TITLE "14:cjc041_0070"
    INDEX 01 01:03:55
  TRACK 42 AUDIO
    TITLE "0:"
    INDEX 01 01:08:03
  TRACK 43 AUDIO
    TITLE "12:cjc041_0071"
    INDEX 01 01:08:56
  TRACK 44 AUDIO
    TITLE "0:"
    INDEX 01 01:10:53
  TRACK 45 AUDIO
    TITLE "13:cjc041_0072"
    INDEX 01 01:11:35
  TRACK 46 AUDIO
    TITLE "0:"
    INDEX 01 01:13:51
  TRACK 47 AUDIO
    TITLE "14:cjc041_0073"
    INDEX 01 01:14:29
  TRACK 48 AUDIO
    TITLE "0:"
    INDEX 01 01:17:45
  TRACK 49 AUDIO
    TITLE "12:cjc041_0074"
    INDEX 01 01:18:27
  TRACK 50 AUDIO
    TITLE "0:"
    INDEX 01 01:20:22
  TRACK 51 AUDIO
    TITLE "13:cjc041_0075"
    INDEX 01 01:20:71
  TRACK 52 AUDIO
    TITLE "0:"
    INDEX 01 01:23:09
  TRACK 53 AUDIO
    TITLE "14:cjc041_0076"
    INDEX 01 01:23:62
  TRACK 54 AUDIO
    TITLE "0:"
    INDEX 01 01:27:55
  TRACK 55 AUDIO
    TITLE "12:cjc041_0077"
    INDEX 01 01:28:31
  TRACK 56 AUDIO
    TITLE "0:"
    INDEX 01 01:29:72
  TRACK 57 AUDIO
    TITLE "13:cjc041_0078"
    INDEX 01 01:30:50
  TRACK 58 AUDIO
    TITLE "0:"
    INDEX 01 01:31:59
  TRACK 59 AUDIO
    TITLE "14:cjc041_0079"
    INDEX 01 01:32:37
  TRACK 60 AUDIO
    TITLE "0:"
    INDEX 01 01:36:74
  TRACK 61 AUDIO
    TITLE "12:cjc041_0080"
    INDEX 01 01:37:52
  TRACK 62 AUDIO
    TITLE "0:"
    INDEX 01 01:39:31
  TRACK 63 AUDIO
    TITLE "13:cjc041_0081"
    INDEX 01 01:40:09
  TRACK 64 AUDIO
    TITLE "0:"
    INDEX 01 01:42:28
  TRACK 65 AUDIO
    TITLE "14:cjc041_0082"
    INDEX 01 01:43:05
  TRACK 66 AUDIO
    TITLE "0:"
    INDEX 01 01:45:69
  TRACK 67 AUDIO
    TITLE "12:cjc041_0083"
    INDEX 01 01:46:55
  TRACK 68 AUDIO
    TITLE "0:"
    INDEX 01 01:48:50
  TRACK 69 AUDIO
    TITLE "13:cjc041_0084"
    INDEX 01 01:49:28
  TRACK 70 AUDIO
    TITLE "0:"
    INDEX 01 01:51:09
  TRACK 71 AUDIO
    TITLE "14:cjc041_0085"
    INDEX 01 01:51:62
  TRACK 72 AUDIO
    TITLE "0:"
    INDEX 01 01:54:66
  TRACK 73 AUDIO
    TITLE "12:cjc041_0086"
    INDEX 01 01:55:50
  TRACK 74 AUDIO
    TITLE "0:"
    INDEX 01 01:57:49
  TRACK 75 AUDIO
    TITLE "13:cjc041_0087"
    INDEX 01 01:58:29
  TRACK 76 AUDIO
    TITLE "0:"
    INDEX 01 02:00:45
  TRACK 77 AUDIO
    TITLE "14:cjc041_0088"
    INDEX 01 02:01:21
  TRACK 78 AUDIO
    TITLE "0:"
    INDEX 01 02:04:72
  TRACK 79 AUDIO
    TITLE "12:cjc041_0089"
    INDEX 01 02:05:56
  TRACK 80 AUDIO
    TITLE "0:"
    INDEX 01 02:07:41
  TRACK 81 AUDIO
    TITLE "13:cjc041_0090"
    INDEX 01 02:08:19
  TRACK 82 AUDIO
    TITLE "0:"
    INDEX 01 02:10:30
  TRACK 83 AUDIO
    TITLE "14:cjc041_0091"
    INDEX 01 02:11:06
  TRACK 84 AUDIO
    TITLE "0:"
    INDEX 01 02:14:04
  TRACK 85 AUDIO
    TITLE "12:cjc041_0092"
    INDEX 01 02:14:61
  TRACK 86 AUDIO
    TITLE "0:"
    INDEX 01 02:16:62
  TRACK 87 AUDIO
    TITLE "13:cjc041_0093"
    INDEX 01 02:17:45
  TRACK 88 AUDIO
    TITLE "0:"
    INDEX 01 02:19:50
  TRACK 89 AUDIO
    TITLE "14:cjc041_0094"
    INDEX 01 02:20:28
  TRACK 90 AUDIO
    TITLE "0:"
    INDEX 01 02:23:54
  TRACK 91 AUDIO
    TITLE "12:cjc041_0095"
    INDEX 01 02:24:40
  TRACK 92 AUDIO
    TITLE "0:"
    INDEX 01 02:26:11
  TRACK 93 AUDIO
    TITLE "13:cjc041_0096"
    INDEX 01 02:26:68
  TRACK 94 AUDIO
    TITLE "0:"
    INDEX 01 02:29:00
  TRACK 95 AUDIO
    TITLE "14:cjc041_0097"
    INDEX 01 02:29:58
  TRACK 96 AUDIO
    TITLE "0:"
    INDEX 01 02:32:72
